<svg width="177" height="22" viewBox="0 0 177 22" fill="none" xmlns="http://www.w3.org/2000/svg">
<g id="McDonald&#39;s" opacity="0.4">
<path id="Vector" fill-rule="evenodd" clip-rule="evenodd" d="M38.3531 3.42667C32.6273 3.42667 29.0251 7.41292 29.0251 12.9857C29.0251 18.3582 33.0038 21.9724 38.3531 21.9724C43.0863 21.9724 46.7875 19.2712 47.3018 14.5749H41.6465C41.3704 16.4342 40.3411 17.5809 38.3185 17.5809C35.8488 17.5809 34.8555 15.2517 34.8555 12.9857C34.8555 10.556 35.3698 7.81754 38.6272 7.81754C40.1003 7.81754 41.4383 8.86901 41.4749 10.3537H47.1289C46.7203 5.72459 42.7776 3.42667 38.3531 3.42667ZM100.828 3.426C98.3043 3.426 96.5298 4.56864 95.4686 6.40738H95.3968V3.93377H89.7421V21.4666H95.5697V12.3628C95.5697 9.80335 96.6895 8.15228 98.7234 8.15294C101.748 8.15294 101.64 10.5873 101.64 12.9844V21.4666H107.469V10.2153C107.469 7.68111 106.761 3.426 100.828 3.426ZM117.843 3.426C115.818 3.426 113.762 3.7654 112.184 4.64517C110.607 5.55422 109.509 7.04225 109.407 9.33884H114.86C115.135 7.85281 116.162 7.1454 117.774 7.1454C118.975 7.1454 120.585 7.64717 120.585 8.96484C120.585 10.0496 120.036 10.3843 119.043 10.5886C114.997 11.3972 108.687 10.96 108.687 16.6665C108.687 20.2834 111.362 21.9711 114.754 21.9711C116.883 21.9711 119.113 21.3635 120.62 19.8109C120.69 20.3852 120.757 20.9236 120.962 21.4666H126.828C126.142 20.0818 126.142 18.4586 126.142 16.9713V9.30224C126.142 4.33971 122.058 3.426 117.842 3.426H117.843ZM120.518 13.2565C120.655 16.8728 119.727 18.424 116.951 18.424C115.647 18.424 114.517 17.8484 114.517 16.4336C114.517 15.046 115.616 14.505 116.918 14.2022C118.188 13.8648 119.695 13.7656 120.517 13.2572L120.518 13.2565ZM128.045 0.0260406V21.468H133.874V0.0253751L128.045 0.0260406ZM147.748 0.0260406V5.82707H147.677C146.478 4.23923 144.797 3.428 142.603 3.428C137.561 3.428 135.094 7.75166 135.094 12.3116C135.094 17.2435 137.46 21.9724 143.049 21.9724C145.106 21.9724 146.821 21.0946 147.953 19.4389H148.019V21.4673H153.577V0.0260406H147.748ZM144.488 7.81887C147.026 7.81887 147.953 10.1514 147.953 12.6836C147.953 14.9116 147.335 17.5809 144.488 17.5809C141.814 17.5809 140.924 14.9123 140.924 12.5145C140.924 10.2865 141.814 7.81887 144.488 7.81887ZM154.793 0.0260406V5.82574H157.521L160.245 0.0260406H154.793ZM48.5207 0.0260406V21.468H57.8793C64.4927 21.468 68.5466 17.6834 68.5466 10.6592C68.5466 4.01962 64.5526 0.0260406 57.8793 0.0260406H48.5207ZM54.7323 4.99721H57.351C60.7382 4.99721 62.2565 7.22792 62.2565 10.6425C62.2565 14.3985 61.0323 16.4988 57.351 16.4988H54.7323V4.99721ZM4.489 -0.00390625L-0.00732422 21.4673H6.41247L8.06716 12.9404C8.24418 11.9983 8.39482 11.0514 8.51892 10.1008H8.58345C8.68458 10.6944 8.94606 11.8697 9.20887 12.8726L11.5415 21.4673H17.9221L20.2507 12.8726C20.5162 11.8697 20.7763 10.6944 20.8761 10.1008H20.9447C21.0012 10.5567 21.1802 11.8424 21.3951 12.9404L23.0498 21.4673H29.4683L24.9726 -0.00390625H18.1689L15.443 10.7803C15.2148 11.6161 14.9334 12.9697 14.7631 13.6758H14.6992C14.5262 12.9697 14.2468 11.6161 14.0192 10.7803L11.292 -0.00390625L4.489 -0.00390625ZM79.1274 3.42667C73.3816 3.42667 69.7621 7.44819 69.7621 12.7155C69.7621 17.9842 73.3802 22.0043 79.126 22.0043C84.8725 22.0043 88.4886 17.9848 88.4886 12.7155C88.4886 7.44819 84.8732 3.42667 79.1274 3.42667ZM79.126 7.81754C81.6457 7.81754 82.657 9.90916 82.657 12.7155C82.657 15.5245 81.6463 17.6135 79.1267 17.6135C76.6051 17.6135 75.5938 15.5245 75.5938 12.7155C75.5938 9.90849 76.6044 7.81754 79.126 7.81754ZM167.178 3.42467C163.728 3.42467 159.007 4.57263 159.007 8.79647C159.007 13.5261 163.694 13.6252 167.315 14.5383C168.329 14.7765 170.124 15.0447 170.124 16.397C170.124 17.7838 168.532 18.2563 167.415 18.2563C166.603 18.2563 165.901 18.0534 165.361 17.6474C164.786 17.2069 164.414 16.5633 164.414 15.6876H158.853C159.023 20.5882 163.287 21.9711 167.45 21.9711C171.41 21.9711 176.028 20.4165 176.028 15.7222C176.028 14.2694 175.117 11.7013 171.563 10.9899C168.922 10.4189 164.913 10.1155 164.913 8.45973C164.913 7.24189 166.437 7.14074 167.382 7.14074C168.094 7.14074 168.66 7.2765 169.134 7.57996C169.607 7.88475 169.879 8.35658 169.879 9.09993H175.268C175.066 4.54003 171.037 3.42467 167.178 3.42467Z" fill="black"/>
</g>
</svg>
