<svg width="175" height="50" viewBox="0 0 175 50" fill="none" xmlns="http://www.w3.org/2000/svg">
<g id="Nestl&#195;&#169;" opacity="0.4" clip-path="url(#clip0_10_1624)">
<path id="Vector" d="M92.8049 13.3206C92.5631 13.6132 92.4263 13.9399 92.4263 14.5081V30.1297H92.3395C92.3395 30.1297 83.7733 14.886 83.3592 14.1813C83.066 13.6815 82.7387 13.3377 82.3075 13.0792C81.8763 12.839 81.428 12.6842 80.5669 12.6842H77.7404C77.0844 12.6842 76.6716 12.9073 76.3784 13.2523C76.1366 13.5437 75.9985 13.8717 75.9985 14.4386V36.5817C75.9985 37.1498 76.1366 37.4766 76.3784 37.7692C76.6716 38.113 77.0844 38.3361 77.7404 38.3361H79.343C79.9977 38.3361 80.4118 38.113 80.7049 37.7692C80.9455 37.4766 81.0836 37.1498 81.0836 36.5817V20.5809H81.1703C81.1703 20.5809 90.0639 36.3062 90.4267 36.8914C90.9263 37.7168 91.7703 38.3361 92.9772 38.3361H95.7182C96.3729 38.3361 96.787 38.113 97.0801 37.7692C97.3208 37.4766 97.4588 37.1498 97.4588 36.5817V16.6063H133.467C133.83 16.6063 134.105 16.5039 134.312 16.332C134.536 16.1247 134.64 15.8492 134.64 15.4371V13.9229C134.64 13.5096 134.536 13.234 134.312 13.028C134.105 12.8561 133.83 12.7524 133.467 12.7524H94.1669C93.5122 12.7524 93.0981 12.9768 92.8049 13.3206ZM108.525 19.2386C102.544 19.2386 99.1823 23.902 99.1823 28.8227C99.1823 34.0701 102.786 38.6812 108.56 38.6812C111.439 38.6812 114.265 37.5973 115.885 35.6868C116.592 34.8614 117.161 33.708 117.161 33.0033C117.161 32.7619 117.109 32.5559 116.972 32.4011C116.834 32.2291 116.626 32.1255 116.265 32.1255H113.49C112.937 32.1255 112.559 32.3316 112.283 32.7449C111.473 33.9324 110.3 34.5517 108.577 34.5517C105.991 34.5517 104.32 32.59 104.199 30.4394H116.196C116.73 30.4394 117.109 30.3187 117.368 30.0614C117.661 29.7859 117.799 29.3896 117.799 28.6496C117.799 26.3965 117.092 24.0569 115.61 22.2671C114.093 20.4602 111.783 19.2386 108.525 19.2386ZM127.02 19.2386C122.298 19.2386 119.195 21.4758 119.195 25.0542C119.195 26.327 119.66 27.3597 120.419 28.168C121.298 29.1153 122.557 29.7688 124.384 30.2333L128.331 31.2306C129.416 31.5062 130.381 31.8329 130.381 32.779C130.381 34.242 128.83 34.7407 127.176 34.7407C126.365 34.7407 125.521 34.5859 124.831 34.242C124.349 34.0006 123.936 33.6568 123.643 33.1923C123.384 32.7961 123.298 32.5035 122.901 32.2804C122.659 32.1426 122.366 32.1255 121.97 32.1255H119.833C119.367 32.1255 119.144 32.2633 118.989 32.4523C118.834 32.6412 118.781 32.9168 118.781 33.1923C118.781 33.8799 119.023 34.7407 119.592 35.5149C120.901 37.2693 123.643 38.6812 127.141 38.6812C130.589 38.6812 135.364 37.2523 135.364 32.6412C135.364 31.455 135.018 30.4394 134.381 29.614C133.571 28.5642 132.416 27.8413 130.451 27.3426L126.539 26.3441C124.918 25.932 124.159 25.6394 124.159 24.6409C124.159 23.6777 125.022 22.9035 127.02 22.9035C128.193 22.9035 129.261 23.162 129.951 23.885C130.519 24.4872 130.417 24.7969 130.865 25.0371C131.14 25.1749 131.45 25.1749 131.934 25.1749H133.881C134.191 25.1749 134.416 25.1237 134.587 24.9335C134.726 24.7786 134.812 24.5384 134.812 24.1422C134.812 23.2473 134.225 22.0952 133.192 21.2173C131.813 20.0298 129.641 19.2386 127.02 19.2386ZM137.759 19.8933H136.794C136.433 19.8933 136.157 19.9957 135.95 20.1676C135.725 20.3749 135.622 20.6504 135.622 21.0625V22.25C135.622 22.6633 135.725 22.9376 135.95 23.1449C136.157 23.3168 136.433 23.4204 136.794 23.4204H137.759V32.0048C137.759 34.2067 138.363 35.5832 139.483 36.6853C140.517 37.6997 141.862 38.3361 144.206 38.3361H145.671C146.034 38.3361 146.308 38.2337 146.516 38.0618C146.74 37.8545 146.878 37.579 146.878 37.1669V35.6697C146.878 35.2564 146.74 34.9821 146.516 34.7748C146.308 34.6029 146.034 34.4993 145.671 34.4993H145.464C144.534 34.4993 143.896 34.2591 143.465 33.8458C142.948 33.3642 142.689 32.6242 142.689 31.661V23.4204H145.827C146.189 23.4204 146.465 23.3168 146.671 23.1449C146.895 22.9376 146.998 22.6633 146.998 22.25V21.0625C146.998 20.6504 146.895 20.3749 146.671 20.1676C146.465 19.9957 146.189 19.8933 145.827 19.8933H142.706V14.2838C142.706 13.8363 142.568 13.5096 142.362 13.2523C142.103 12.9426 141.741 12.7524 141.207 12.7524H139.259C138.724 12.7524 138.363 12.9426 138.104 13.2523C137.897 13.5096 137.759 13.8363 137.759 14.2838V19.8933ZM148.309 36.8048C148.309 37.2522 148.446 37.579 148.654 37.8375C148.911 38.1471 149.274 38.3361 149.808 38.3361H151.859C152.394 38.3361 152.755 38.1471 153.014 37.8375C153.221 37.579 153.359 37.2522 153.359 36.8048V14.285C153.359 13.8375 153.221 13.5108 153.014 13.2523C152.755 12.9426 152.394 12.7524 151.859 12.7524H149.808C149.274 12.7524 148.911 12.9426 148.654 13.2523C148.446 13.5108 148.309 13.8375 148.309 14.285V36.8048ZM104.233 26.7745C104.457 24.6579 106.078 23.0754 108.543 23.0754C110.956 23.0754 112.627 24.6579 112.852 26.7745H104.233ZM172.027 16.6063C172.388 16.6063 172.664 16.5039 172.871 16.332C173.095 16.1247 173.199 15.8492 173.199 15.4371V13.8363C173.199 13.217 173.078 12.9073 172.871 12.6842C172.681 12.4769 172.371 12.3574 172.027 12.3574C171.751 12.3574 171.476 12.3916 171.01 12.4428L157.254 13.8022C156.858 13.8363 156.669 13.957 156.531 14.1119C156.376 14.2838 156.306 14.5081 156.306 14.8178V15.7114C156.306 16.0565 156.376 16.2113 156.497 16.3491C156.651 16.521 156.875 16.6063 157.186 16.6063H172.027ZM164.425 19.2386C158.444 19.2386 155.082 23.902 155.082 28.8227C155.082 34.0701 158.686 38.6812 164.46 38.6812C167.339 38.6812 170.165 37.5973 171.785 35.6868C172.492 34.8614 173.061 33.708 173.061 33.0033C173.061 32.7619 173.009 32.5559 172.871 32.4011C172.734 32.2291 172.526 32.1255 172.165 32.1255H169.39C168.837 32.1255 168.459 32.3316 168.183 32.7449C167.373 33.9324 166.2 34.5517 164.477 34.5517C161.891 34.5517 160.219 32.59 160.099 30.4394H172.131C172.664 30.4394 173.044 30.3187 173.302 30.0614C173.595 29.7859 173.733 29.3896 173.733 28.6496C173.733 26.3965 173.026 24.0569 171.544 22.2671C170.027 20.4602 167.683 19.2386 164.425 19.2386ZM160.133 26.7745C160.358 24.6579 161.978 23.0754 164.443 23.0754C166.856 23.0754 168.527 24.6579 168.752 26.7745H160.133Z" fill="black"/>
<path id="Vector_2" d="M56.558 16.8124C52.0959 10.169 48.1749 7.93057 47.0719 6.87719C45.8602 5.71529 44.9368 4.39856 44.3492 3.76457C43.0423 2.33933 41.3505 0.580021 38.568 0.580021C35.8819 0.580021 34.1071 2.32713 33.5306 3.8365C33.3632 4.26688 33.2313 4.79358 33.1116 4.98499C32.8478 5.41659 31.6605 7.43924 31.1682 8.24147H33.3876L32.3079 10.2763C33.5672 10.0008 34.4662 9.79717 35.6657 9.79717C36.7333 9.79717 37.5004 10.0495 37.8363 10.7189C38.4605 11.9649 38.4605 15.7347 39.5158 18.573C40.4991 21.2406 42.8981 23.8509 45.5964 25.8504C45.6318 25.8735 45.6684 25.8857 45.7161 25.8857C45.848 25.8857 45.9323 25.7906 45.9323 25.6943C45.9323 25.6224 45.9079 25.5748 45.848 25.5151C43.5931 23.2644 41.7585 20.7748 40.7752 18.0463C39.8029 15.3884 39.9592 11.6528 39.1079 9.98858C38.5435 8.88764 37.3453 8.60114 36.241 8.60114C35.3542 8.60114 34.5261 8.78036 34.1425 8.86326L35.1136 7.22344H33.4707C33.8188 6.61384 34.1779 6.05057 34.3587 5.71529C34.5139 5.42756 34.5749 5.06911 34.7667 4.57899C35.3897 3.00989 36.7687 2.01624 38.568 2.01624C40.8228 2.01624 42.142 3.46465 43.449 4.91306C44.0488 5.58361 45.0321 6.98447 46.1717 8.02567C46.951 8.74378 48.4388 9.54601 50.7291 11.9052C52.0483 13.2694 53.5837 15.0409 55.2021 17.4111C60.9956 25.8735 64.7969 33.3314 66.9198 39.1494L66.8844 39.1738C60.8039 35.0553 55.538 31.1649 51.2934 26.3649C48.2824 22.9535 45.6684 19.0033 43.3892 13.9632C43.2328 13.6279 43.1021 13.317 42.958 12.9939C42.8981 12.8622 42.8383 12.8257 42.7418 12.8257C42.6221 12.8257 42.5378 12.9098 42.5378 13.0293C42.5378 13.1609 42.5976 13.4487 42.7296 14.0229C43.9413 19.2423 47.2991 23.9228 50.8854 27.8133C54.4595 31.6806 58.5001 35.0078 61.8226 37.4267L64.4133 44.8235C64.4732 45.004 64.5453 45.1954 64.5453 45.3746C64.5453 45.5063 64.5086 45.6136 64.4256 45.6855C64.3535 45.7574 64.2582 45.794 64.042 45.794H63.2627C62.9268 45.794 62.7936 45.7453 62.6739 45.6502C62.5542 45.5538 62.4712 45.41 62.4101 45.2429C62.1829 44.548 60.8148 40.6575 60.5522 39.8675C60.5034 39.7248 60.4191 39.6761 60.3238 39.6761C60.2041 39.6761 60.1198 39.7724 60.1198 39.8797C60.1198 39.976 60.1552 40.0833 60.2163 40.4186C60.5632 42.1901 60.9712 44.1774 61.1385 44.932C61.2118 45.2783 61.2949 45.6026 61.2949 45.8416C61.2949 46.0561 61.2473 46.1769 61.0677 46.3561L60.264 47.1705C60.0722 47.3619 59.9635 47.4095 59.8083 47.4095C59.6166 47.4095 59.4602 47.2778 59.3882 46.9425C58.4769 42.6924 57.0979 37.4267 56.7375 35.9648C56.6532 35.643 56.5934 35.4625 56.4016 35.4625C56.2343 35.4625 56.1744 35.582 56.1744 35.7259C56.1744 35.8332 56.1976 35.9648 56.2099 36.0612C56.4261 37.5693 57.3019 43.0642 58.2485 48.08C58.4171 48.942 58.7408 49.4199 59.4846 49.4199C59.8206 49.4199 60.143 49.2882 60.4435 49.0017C60.9358 48.5104 61.0787 48.3787 61.6674 47.8045C62.0864 47.3973 62.3747 47.2302 63.0941 47.2302H64.869C65.2891 47.2302 65.5163 47.1229 65.7203 46.9303C65.9121 46.7511 66.0318 46.4999 66.0318 46.1403C66.0318 45.7696 65.9365 45.4709 65.8046 45.0991C65.349 43.8787 63.8857 39.748 63.4533 38.5873L63.4899 38.563C64.9887 39.7005 67.1714 41.1489 68.1315 41.1489C68.4308 41.1489 68.6116 41.0172 68.6116 40.5502C68.6116 38.3484 64.941 29.2861 56.558 16.8124Z" fill="black"/>
<path id="Vector_3" d="M15.3857 2.90234C15.6373 2.35126 16.1894 1.96844 16.849 1.96844C17.748 1.96844 18.4675 2.66338 18.4675 3.5851C18.4675 4.12276 18.2158 4.59093 17.8201 4.87745C17.9044 5.18956 17.9642 5.46388 17.9642 5.72723C17.9642 6.73307 17.3645 7.43898 16.2615 7.81084C16.1173 8.42044 15.8535 8.97152 15.4211 9.37873C14.7016 10.0725 13.97 10.0725 13.97 10.3602C13.97 10.5162 14.0787 10.6113 14.3779 10.6113C15.7094 10.6113 17.0163 9.87007 17.1727 8.63624C18.4443 8.20586 19.2114 6.92448 19.2114 5.90767C19.2114 5.6431 19.1869 5.41633 19.0794 5.20175C19.4276 4.86525 19.8355 4.29101 19.8355 3.44123C19.8355 2.69874 19.5106 1.94527 18.9353 1.39419C18.432 0.902857 17.7236 0.579769 16.8966 0.579769C15.6971 0.579769 14.9178 1.22716 14.4744 1.86115C13.1662 1.86115 11.4757 3.30956 11.4757 5.38097H11.2961C11.1752 4.66287 10.4325 4.1825 9.80837 4.14715C9.30512 2.639 8.16547 1.34665 6.29416 1.34665C6.07918 1.34665 5.81534 1.35884 5.58692 1.39419C5.03603 0.890663 4.42407 0.579769 3.5727 0.579769C1.94079 0.579769 0.609375 1.88553 0.609375 3.53633C0.609375 4.56655 1.0772 5.27247 1.96522 5.89548C1.96522 5.89548 1.95301 6.02715 1.95301 6.08689C1.95301 7.40363 3.39191 9.46285 5.52707 9.46285C5.52707 9.79692 5.94726 10.2529 6.41509 10.3358V10.5041H6.23431C3.29664 10.5041 2.0495 11.9171 2.0495 12.862C1.1737 13.2216 0.609375 14.1909 0.609375 15.0882C0.609375 16.8719 1.91758 18.1411 3.64476 18.1411C4.22008 18.1411 4.80761 17.9143 5.21559 17.6022C5.51485 17.7095 5.8984 17.7693 6.29416 17.7693C7.12233 17.7693 8.04577 17.4827 8.69315 16.5366C8.78965 16.5488 8.87271 16.5488 8.96921 16.5488C10.0246 16.5488 10.9358 15.8539 11.4158 14.9444C11.5355 14.7176 11.5832 14.5384 11.5832 14.4055C11.5832 14.275 11.5233 14.1665 11.3914 14.1665C11.2241 14.1665 11.1996 14.3226 10.9004 14.5981C10.2286 15.2089 9.19641 15.4357 8.14104 15.4357C7.62558 16.1904 6.99041 16.5854 6.25874 16.5854C5.71884 16.5854 5.29987 16.4416 4.86747 16.1538C4.51934 16.5366 4.08816 16.6927 3.66797 16.6927C2.72132 16.6927 2.0495 16.0343 2.0495 15.076C2.0495 14.4055 2.48069 13.8081 3.08044 13.5801C3.18793 12.395 4.45949 11.5928 6.04253 11.5928C6.24652 11.5928 6.45051 11.605 6.66671 11.6294C6.90612 11.2465 7.48144 10.8393 8.29739 10.7308C8.46596 10.7077 8.59666 10.6955 8.69315 10.6479C8.78965 10.5991 8.83729 10.504 8.83729 10.3955C8.83729 10.3004 8.80064 10.2163 8.70537 10.1566C8.62109 10.109 8.47695 10.0859 8.30961 10.0493C7.55351 9.90542 6.6545 9.43847 6.19888 8.30096C4.38742 8.30096 3.05601 6.85255 3.05601 5.22492V5.11763C2.45626 4.87745 2.0495 4.3032 2.0495 3.62045C2.0495 2.72312 2.75674 2.00501 3.65576 2.00501C4.19565 2.00501 4.66348 2.26836 4.96396 2.66338C5.21559 2.59145 5.50264 2.56706 5.77869 2.56706C7.12233 2.56706 8.56123 3.41684 8.83729 5.06886C10.5645 5.22492 10.9724 6.68552 11.0799 7.29634C11.1398 7.60723 11.1874 7.87058 11.3914 7.87058C11.6076 7.87058 11.6553 7.6304 11.7273 7.30731C11.8592 6.69771 12.0877 6.20637 12.5433 5.82354C12.5433 4.25444 13.7183 2.90234 15.3857 2.90234Z" fill="black"/>
<path id="Vector_4" d="M18.8754 12.2871C18.311 13.0894 17.9043 13.4844 16.6205 14.9925C14.93 16.992 14.042 18.6087 12.5664 22.1992C12.807 22.1748 13.1552 22.1517 13.5387 22.1517C13.7305 22.1517 13.8856 22.1517 14.1385 22.1626L14.318 21.7798C15.1462 20.0083 16.2602 17.6138 17.82 15.7704L18.3599 15.1364C19.9662 13.2576 20.9617 12.1433 21.5858 9.58173C21.802 8.6722 21.9816 7.859 22.5936 7.27134C23.1445 6.74465 23.8407 6.51788 24.5479 6.51788C25.1477 6.51788 25.5923 6.66174 26.2397 6.93606C26.8272 7.18722 27.0422 7.23599 27.6664 7.23599C27.8826 7.23599 28.0377 7.22379 28.1819 7.2116L27.3427 8.33692L28.4823 9.13916C27.0544 9.55734 26.2995 10.935 26.0467 11.569C25.9991 11.7007 25.9759 11.7848 25.9759 11.8689C25.9759 11.9653 26.0235 12.0604 26.1676 12.0604C26.3228 12.0604 26.4425 11.9409 26.6464 11.7007C27.3427 10.8631 27.8948 10.2876 30.4599 9.48663L28.6497 8.12113L30.0165 6.12286H28.734C27.918 6.12286 27.3781 6.11067 26.6709 5.78758C25.7108 5.34501 25.2198 5.15359 24.3684 5.15359C23.3252 5.15359 22.3774 5.52423 21.5981 6.24234C20.6978 7.06774 20.4218 8.16989 20.0993 9.37934C19.8464 10.312 19.5472 11.3422 18.8754 12.2871Z" fill="black"/>
<path id="Vector_5" d="M21.6336 20.4396C20.9495 21.3613 20.0139 22.5695 19.2944 23.8509C19.5229 23.9594 20.2789 24.3666 20.5428 24.5093C21.3697 23.2645 22.5216 21.7332 23.2765 20.5713C23.9605 19.5179 24.2366 19.0631 24.2842 17.6501C24.2964 17.4111 24.2964 17.1831 24.3196 16.9563C24.3795 16.226 24.5725 15.4835 25.2675 14.802C25.783 14.2863 26.5268 14.0242 27.2707 14.0242C27.9902 14.0242 28.4091 14.2266 29.0333 14.2266C29.4767 14.2266 29.8004 14.1193 30.0887 14.012L30.3171 13.9278L29.765 15.2458L31.0598 15.7713C30.2328 16.2858 28.4214 18.5011 28.4214 21.1223C28.4214 22.0684 28.5655 22.9414 28.7695 23.7192C28.7939 23.8034 28.8415 23.8875 28.9735 23.8875C29.0932 23.8875 29.1775 23.8156 29.1897 23.6839L29.2019 23.4083C29.2373 22.6061 29.2972 21.3381 29.6209 20.2006C30.1608 18.2853 31.6119 16.4894 33.063 15.6274L30.9999 14.7301L31.8879 12.5636L30.9169 12.7672C30.3293 12.8867 29.8969 12.9939 29.3814 12.9939C29.0455 12.9939 28.662 12.9464 28.2064 12.8379C27.8583 12.755 27.4857 12.683 26.9592 12.683C26.0114 12.683 24.9914 13.0415 24.2964 13.712C23.0248 14.9215 22.9528 16.226 22.8685 17.3879C22.761 18.9314 22.4727 19.3143 21.6336 20.4396Z" fill="black"/>
<path id="Vector_6" d="M52.4083 21.1693C52.324 21.062 52.2519 21.0133 52.1566 21.0133C52.0125 21.0133 51.9404 21.1096 51.9404 21.2169C51.9404 21.3851 52.0601 21.5887 52.3606 22.0922C53.2718 23.6358 54.3993 25.1915 55.7905 26.6533C57.2893 28.2443 59.0519 29.7281 60.9354 31.057L61.523 31.4642C61.6073 31.5252 61.6671 31.5605 61.7392 31.5605C61.8589 31.5605 61.9432 31.4411 61.9432 31.3447C61.9432 31.285 61.9187 31.224 61.8467 31.1643C60.0963 29.5733 58.2127 27.6335 56.4501 25.7669C55.0699 24.2941 53.6554 22.7384 52.4083 21.1693Z" fill="black"/>
<path id="Vector_7" d="M13.8142 15.7471C13.9938 15.4484 14.5337 14.7181 14.7499 14.4901C13.8264 12.6235 12.3155 10.8398 11.6559 10.1327L11.1038 10.6715C11.7402 11.5933 12.8065 13.3769 13.8142 15.7471Z" fill="black"/>
<path id="Vector_8" d="M5.02328 4.93765C4.91457 4.84133 4.89136 4.78159 4.89136 4.70966C4.89136 4.62675 4.95121 4.53043 5.08313 4.53043C5.13077 4.53043 5.17841 4.54263 5.23948 4.56701C6.12628 4.92546 6.88238 5.34486 7.55419 5.85936C8.1173 6.28974 8.66941 6.81765 9.20808 7.45164L8.70483 8.02588C8.08187 7.51016 6.06642 5.82401 5.02328 4.93765Z" fill="black"/>
<path id="Vector_9" d="M13.5265 8.94775L12.8792 8.55273C13.2981 7.55909 13.8148 6.64956 14.4255 5.96681C14.858 5.47669 15.2659 5.08045 15.7215 4.68665C15.829 4.60253 15.8889 4.5306 15.9964 4.5306C16.1173 4.5306 16.2016 4.62691 16.2016 4.72201C16.2016 4.76956 16.1772 4.8293 16.1295 4.90123C15.3978 6.03874 13.9699 8.28939 13.5265 8.94775Z" fill="black"/>
<path id="Vector_10" d="M5.39534 14.5018C5.23899 14.5616 5.16692 14.5981 5.08386 14.5981C4.95194 14.5981 4.89087 14.4896 4.89087 14.4055C4.89087 14.3226 4.92751 14.2751 5.0118 14.2019C6.48613 13.0534 7.78212 12.5987 9.56915 12.2987L9.78413 13.0181L5.39534 14.5018Z" fill="black"/>
<path id="Vector_11" d="M36.1575 5.21355C36.1575 4.79414 36.3737 4.03946 37.153 4.03946C37.4168 4.03946 37.6684 4.0992 37.8724 4.19552C38.1607 4.32719 38.3525 4.5186 38.3525 4.72221C38.3525 4.93801 38.1363 5.15381 37.8126 5.41715C37.4767 5.69147 37.0455 5.94385 36.6974 5.94385C36.2784 5.94385 36.1575 5.54761 36.1575 5.21355Z" fill="black"/>
<path id="Vector_12" d="M23.9844 8.70853C23.9844 8.19403 24.2959 7.63076 24.8956 7.63076C25.1594 7.63076 25.4709 7.73805 25.6993 7.95507C25.8313 8.07455 25.8911 8.205 25.8911 8.3379C25.8911 8.62563 25.6151 8.89995 25.2914 9.09136C25.0397 9.23523 24.7759 9.33154 24.5487 9.33154C24.1761 9.33154 23.9844 9.10233 23.9844 8.70853Z" fill="black"/>
<path id="Vector_13" d="M26.803 16.0944C26.803 15.9749 26.8152 15.8311 26.8628 15.6872C26.9593 15.3763 27.1621 15.0764 27.6666 15.0764C27.895 15.0764 28.1454 15.1361 28.3494 15.2812C28.5302 15.4007 28.6022 15.5555 28.6022 15.7116C28.6022 16.2261 27.7386 16.8247 27.3062 16.8247C26.9948 16.8247 26.803 16.5248 26.803 16.0944Z" fill="black"/>
<path id="Vector_14" d="M22.0774 31.2012C20.459 31.2012 19.7383 30.4355 19.7383 29.4663C19.7383 27.7655 22.7248 26.1025 25.4109 25.0723L26.1071 25.9708C24.452 26.628 21.1186 28.0422 21.1186 29.2626C21.1186 29.693 21.3702 30.0051 22.3767 30.0051C24.1283 30.0051 26.0118 29.1541 27.75 28.3044C27.8819 28.2446 28.0383 28.1849 28.1824 28.1849C28.4096 28.1849 28.5537 28.2568 28.7211 28.4958L29.0093 28.8908C26.9829 30.0051 24.452 31.2012 22.0774 31.2012Z" fill="black"/>
<path id="Vector_15" d="M26.5393 31.6563C24.9562 32.5414 23.3133 33.1291 21.8622 33.1291C20.2425 33.1291 18.8036 32.4341 17.6041 30.626C17.1009 29.8604 16.7051 28.9033 16.2251 28.0535C15.6497 27.0477 15.0256 26.5088 13.9348 26.5088C12.9393 26.5088 11.967 26.916 10.936 27.3586L10.9837 27.5866C11.068 27.9572 11.2121 28.2206 11.559 28.2206C11.7153 28.2206 11.8717 28.1498 11.956 28.1255C12.5313 27.945 12.9503 27.789 13.539 27.789C14.438 27.789 14.8692 28.3169 15.4812 29.6092L15.7096 30.0884C15.0854 30.3042 13.6221 30.4115 12.5313 30.4115H12.0158L12.1001 30.926C12.1355 31.1418 12.2198 31.321 12.3994 31.4051C12.6144 31.5124 12.9271 31.5246 13.4669 31.5246C14.8338 31.5246 15.8293 31.3576 16.4046 31.2125C17.8802 33.4046 19.9066 34.2422 21.8622 34.2422C23.5283 34.2422 25.2201 33.6314 26.8398 32.7462L26.5393 31.6563Z" fill="black"/>
<path id="Vector_16" d="M28.1699 32.195L27.8828 31.0929C30.3527 29.7651 32.6075 28.6996 36.206 28.3521C36.2781 29.7286 36.1816 31.4647 37.2015 31.4647C38.1359 31.4647 40.1746 29.058 42.526 26.0417C42.7422 26.2453 43.0891 26.4611 43.4018 26.7001L42.802 27.4779C40.5105 30.4235 38.5561 32.9375 36.9487 32.9375C35.4499 32.9375 34.8856 31.177 34.8624 29.8602C32.5721 30.0882 30.4125 30.8539 28.1699 32.195Z" fill="black"/>
<path id="Vector_17" d="M59.904 8.16986C58.9684 8.16986 58.7045 7.65414 58.7045 6.92506C58.7045 5.41691 59.6524 3.25039 60.2521 2.01656H58.7998C58.0449 3.47716 55.0706 8.15767 53.4631 10.0974L54.3866 11.0898C55.2502 10.1328 56.198 8.50514 57.229 6.90068H57.4207C57.4207 6.9848 57.4097 7.0799 57.4097 7.16402C57.4097 8.51733 58.1048 9.52195 59.8197 9.52195C60.8751 9.52195 62.5302 8.99526 64.09 8.46857C65.3848 8.026 66.5721 7.57123 67.1596 7.4042V5.96799C66.4878 6.17037 65.121 6.69707 63.7053 7.18841C62.2187 7.70291 60.7554 8.16986 59.904 8.16986Z" fill="black"/>
<path id="Vector_18" d="M63.1061 12.515C64.545 11.9054 67.1235 10.8752 68.6113 10.3363V8.8757C65.6248 9.97786 60.3834 12.1444 56.8093 14.0841C56.9058 14.2024 57.53 15.0765 57.6008 15.1851C59.1118 14.562 60.4677 14.1548 61.6904 14.1548C63.4066 14.1548 64.8088 14.1548 67.1602 13.6038V12.5028C65.841 12.743 64.4375 13.0295 63.5263 13.0295C62.9864 13.0295 62.83 12.9576 62.83 12.7784C62.83 12.6711 62.9021 12.5991 63.1061 12.515Z" fill="black"/>
<path id="Vector_19" d="M32.3795 19.2426L31.803 20.3447H37.9324L37.4768 19.2426H32.3795Z" fill="black"/>
<path id="Vector_20" d="M10.3001 25.8144C10.9475 25.8144 11.4752 25.5986 11.9797 25.3962C12.4585 25.2036 12.9385 25.0122 13.5859 25.0122C15.1213 25.0122 17.0159 25.7547 18.6832 26.4606C18.7797 26.4972 18.8872 26.5203 18.9947 26.5203C19.2597 26.5203 19.4637 26.4008 19.5944 26.1497L19.8106 25.7547C17.9759 24.6891 15.0493 23.5516 13.5261 23.5516C12.8311 23.5516 12.3266 23.732 11.8478 23.9222C11.3079 24.1392 10.84 24.366 10.3478 24.366C9.13729 24.366 6.03105 23.1687 6.03105 22.0081C6.03105 20.6438 10.972 20.1171 11.5118 20.1171L12.0029 19.0027C8.41783 19.0027 4.14752 20.2597 4.14752 21.9239C4.14752 22.4031 4.42358 22.6421 4.42358 23.0846C4.42358 23.6833 4.14752 24.0905 4.14752 24.761C4.14752 25.2036 4.41136 25.7669 4.72284 26.2582C5.05875 26.7727 5.45451 27.1068 5.45451 27.5384C5.45451 27.8614 5.23953 28.2443 5.23953 28.999C5.23953 30.6144 6.16297 31.5971 7.961 33.5234L8.32133 33.9062C6.83479 34.4817 4.06324 35.679 3.41586 35.9533C1.17321 36.8872 0.610107 38.0247 0.610107 39.8206C0.610107 40.5143 0.610107 41.3043 0.657745 42.0103H1.08893C1.98916 42.0103 2.09665 41.4726 2.09665 40.9581C2.09665 40.6106 2.08444 40.2156 2.08444 39.784C2.09665 38.7916 2.1333 37.9052 3.73955 37.1871C4.38816 36.8994 7.56524 35.607 9.92881 34.6012C10.6238 34.3013 11.2712 34.0501 11.9907 34.0501C12.7944 34.0501 13.7178 34.3976 14.8697 35.0803C15.8408 35.6546 16.8607 36.4324 17.6645 37.3297L18.6832 36.5519C17.8074 35.5229 16.5969 34.6012 15.3852 33.8831C14.1735 33.165 13.0949 32.7456 12.1837 32.7456C11.7879 32.7456 11.4642 32.8175 11.1882 32.8894C10.8645 32.9735 10.564 33.0686 10.1804 33.0686C9.73703 33.0686 9.36448 32.9614 8.82459 32.3383C8.6206 32.1116 7.32583 30.6388 7.04977 30.2084C6.91785 30.0048 6.67844 29.5976 6.67844 29.1184C6.67844 28.9148 6.71386 28.6759 6.83479 28.4601C7.94878 29.322 9.32906 29.8487 11.0074 30.0523L10.7802 28.9148C8.36897 28.2809 5.80264 26.1619 5.80264 24.7976C5.80264 24.5099 5.8747 24.3063 5.98341 24.0551C6.91785 24.9171 9.11286 25.8144 10.3001 25.8144Z" fill="black"/>
<path id="Vector_21" d="M27.5586 26.0301C29.0696 24.9645 30.6282 24.8451 31.8875 24.8451C32.6436 24.8451 33.5304 24.9523 34.4661 25.0718C35.2222 25.1681 35.905 25.2401 36.7209 25.2401C38.3638 25.2401 40.0189 24.6414 40.7384 24.3293C40.9424 24.5817 41.2905 24.917 41.5666 25.156C41.2184 25.3717 39.0124 26.5678 36.7576 26.5678C35.7621 26.5678 34.8142 26.4495 33.9983 26.341C33.2788 26.2459 32.4995 26.1618 31.7434 26.1618C30.9165 26.1618 29.2491 26.4008 28.2182 26.8921L27.5586 26.0301Z" fill="black"/>
<path id="Vector_22" d="M49.8297 30.3035C48.0305 34.0867 45.2956 36.8397 42.4898 38.4319C41.1584 39.1854 39.9589 39.6767 37.3694 39.6767H31.7676C29.7656 39.6767 28.5063 39.9401 27.523 40.1913C26.4664 40.4668 25.7958 40.7411 24.7282 40.7411C23.1452 40.7411 21.6819 39.9633 20.9746 39.222L22.2938 38.1808L21.6342 37.3054C21.2507 37.5822 16.5614 41.041 15.5769 41.8189L15.517 41.7835C15.5415 41.5446 15.5415 41.3288 15.5415 41.113C15.5415 38.4795 14.3175 37.8443 12.4596 37.103L11.2003 37.8443C13.7544 38.6953 14.3896 39.3768 14.3896 41.28C14.3896 42.7894 13.8497 43.3868 13.0704 43.8428C12.2667 44.3097 11.2711 44.5243 10.3966 44.5243C10.024 44.5243 9.85667 44.5962 9.72475 44.7279C9.58061 44.8718 9.50854 45.0876 9.50854 45.3863V45.8057H9.80903C11.4153 45.8057 12.903 45.5545 14.5337 44.2731L19.8472 40.1315C20.6021 40.9935 22.51 42.1907 24.7637 42.1907C26.0352 42.1907 26.8512 41.8786 28.0262 41.5799C28.9375 41.3519 29.8255 41.1483 31.7676 41.1483H37.3926C40.2716 41.1483 41.6629 40.5497 43.1971 39.6889C46.5317 37.8211 49.3741 34.661 50.9816 31.0326C50.5614 30.7705 50.1656 30.5303 49.8297 30.3035Z" fill="black"/>
<path id="Vector_23" d="M40.7989 34.8051C42.25 32.4826 43.5448 30.4233 46.7231 28.7482C46.3872 28.5445 45.9083 28.2337 45.6555 28.0654C44.4206 28.6043 43.1979 29.6808 42.1547 30.7708C39.7557 33.2604 39.9707 34.6966 37.441 35.6671C36.8046 35.9061 36.0253 36.1694 35.0298 36.3974C34.4423 34.5893 32.9679 32.7935 31.4081 32.7935C30.3283 32.7935 29.0812 33.3555 27.6423 33.9907C25.9517 34.7332 24.4041 35.583 23.9131 35.9061L24.5727 36.7924C25.0759 36.5157 26.5271 35.7976 27.9782 35.1758C29.2375 34.6369 30.3772 34.1943 31.1443 34.1943C32.3792 34.1943 33.1829 35.5952 33.6275 36.7193C32.0079 37.1033 29.345 37.1984 28.5425 37.1984C28.17 37.1984 28.038 37.2582 27.9061 37.3667C27.7864 37.474 27.6899 37.6654 27.6301 37.9287L27.5348 38.3359H28.3972C32.8837 38.3359 37.1173 37.63 39.8388 35.978C40.2236 36.0865 40.5595 36.1572 40.9907 36.1572C42.5493 36.1572 44.1567 35.3074 45.1645 34.5296C45.5236 34.2541 45.6079 34.0017 45.6079 33.7274C45.6079 33.5957 45.5956 33.4762 45.5834 33.3555L45.5358 32.8898C44.0969 34.0261 42.8974 34.8771 41.4108 34.8771C41.147 34.8771 40.9552 34.8527 40.7989 34.8051Z" fill="black"/>
</g>
<defs>
<clipPath id="clip0_10_1624">
<rect width="174.286" height="50" fill="white" transform="translate(0.0283203)"/>
</clipPath>
</defs>
</svg>
