<svg width="148" height="46" viewBox="0 0 148 46" fill="none" xmlns="http://www.w3.org/2000/svg">
<g id="Pepsi" opacity="0.4">
<path id="Vector" fill-rule="evenodd" clip-rule="evenodd" d="M91.1473 21.4763C90.6503 21.6362 89.971 21.7719 89.1272 21.8765C88.7249 21.9286 88.2779 21.9549 87.7542 21.9549C86.8748 21.9549 85.9222 21.8853 84.9997 21.8138L84.9678 21.8126C84.1131 21.7485 83.3046 21.6883 82.5288 21.6883C81.9747 21.6883 81.4668 21.7208 80.9796 21.7827C79.5302 21.9614 78.3873 22.4132 78.3873 22.4132L78.3996 22.2964C78.6804 19.4105 81.1228 16.9469 84.0781 16.5572C84.3505 16.5255 84.6313 16.5076 84.9121 16.5076C87.6965 16.5076 90.3968 18.6033 91.1992 21.3871L91.2193 21.4592L91.1473 21.4763ZM94.5492 22.7014L94.5484 22.6621C94.5357 22.4765 94.5001 22.1763 94.4608 21.8537C94.3847 21.2682 94.2558 20.6918 94.0778 20.136C92.7338 15.9269 89.1361 13.2107 84.9121 13.2107C84.4906 13.2107 84.0551 13.2372 83.6256 13.2954C78.2087 13.9875 74.5297 18.8615 75.246 24.3915C75.8974 29.3978 79.9546 32.8275 84.892 32.8275C85.3086 32.8275 85.7424 32.7987 86.1806 32.7465C88.8119 32.4147 91.124 31.3204 92.8561 29.1925C92.9538 29.0714 93.002 28.9166 92.9839 28.7778C92.9681 28.6546 92.8955 28.5375 92.7646 28.4434C92.474 28.2359 91.4367 27.7362 90.8722 27.4694L90.4984 27.2864C90.3273 27.1989 90.2047 27.1596 90.093 27.1596C89.9561 27.1596 89.8263 27.2291 89.6994 27.3819C88.5828 28.6706 87.1697 29.3476 85.7258 29.5357C85.4395 29.5705 85.1619 29.589 84.892 29.589C82.2607 29.589 79.6049 27.8397 78.834 25.4387L78.8148 25.3757L78.8713 25.3487C79.008 25.2814 80.2394 24.7121 82.0643 24.7121C82.2905 24.7121 82.5211 24.7213 82.7462 24.7412C83.2696 24.7823 83.7953 24.8498 84.3497 24.9194C85.3729 25.0536 86.4341 25.1927 87.6727 25.1927C88.4361 25.1927 89.1866 25.138 89.9517 25.0322C92.9638 24.4559 94.1588 23.6173 94.1682 23.6096C94.5934 23.3365 94.5777 23.1102 94.5492 22.7014ZM141.734 14.3127C141.734 14.0616 141.526 13.8595 141.276 13.8595H138.783C138.535 13.8595 138.329 14.0616 138.329 14.3127V31.9105C138.329 32.159 138.535 32.3646 138.783 32.3646H141.276C141.526 32.3646 141.734 32.159 141.734 31.9105V14.3127ZM140.031 7.58301C138.792 7.58301 137.781 8.58752 137.781 9.81978C137.781 11.0492 138.792 12.0514 140.031 12.0514C141.274 12.0514 142.281 11.0492 142.281 9.81978C142.281 8.58752 141.274 7.58301 140.031 7.58301ZM107.032 16.5529C110.564 16.5529 113.333 19.4396 113.333 23.127C113.333 26.8363 110.706 29.6309 107.222 29.6309C105.462 29.6309 103.831 29.0044 102.638 27.8696C101.407 26.7029 100.732 25.0553 100.732 23.2373C100.732 19.5513 103.558 16.5529 107.032 16.5529ZM106.921 32.8335C107.078 32.84 107.242 32.8463 107.401 32.8463C109.962 32.8463 112.342 31.8646 114.111 30.0953C115.904 28.2915 116.889 25.8181 116.889 23.127C116.889 17.5668 112.577 13.2107 107.072 13.2107C102.592 13.2107 98.8099 16.1396 97.6535 20.4966C97.4568 21.2363 97.2532 23.1227 97.2532 25.004V38.8118C97.2532 39.0635 97.4568 39.2684 97.7103 39.2684H100.183C100.438 39.2684 100.645 39.0609 100.645 38.8081L100.643 30.1101L100.773 30.2352C101.988 31.4068 104.24 32.7086 106.921 32.8335ZM62.606 16.5529C66.1357 16.5529 68.9052 19.4396 68.9052 23.127C68.9052 26.8363 66.2793 29.6309 62.792 29.6309C61.0283 29.6309 59.405 29.0044 58.2126 27.8696C56.9795 26.7029 56.3011 25.0553 56.3011 23.2373C56.3011 19.5513 59.1294 16.5529 62.606 16.5529ZM62.4963 32.8335C62.6539 32.84 62.8162 32.8463 62.9721 32.8463C65.5362 32.8463 67.9172 31.8646 69.683 30.0953C71.4768 28.2915 72.4648 25.8181 72.4648 23.127C72.4648 17.5668 68.1495 13.2107 62.643 13.2107C58.1647 13.2107 54.3789 16.1396 53.2253 20.4966C53.0249 21.2363 52.8245 23.1227 52.8245 25.004V38.8118C52.8245 39.0635 53.03 39.2684 53.2772 39.2684H55.7573C56.0117 39.2684 56.2187 39.0609 56.2187 38.8081L56.2147 30.1101L56.3398 30.2352C57.5549 31.4068 59.8073 32.7086 62.4963 32.8335ZM119.271 29.7509C121.424 31.7069 123.776 32.8243 126.829 32.8243H126.926C132.196 32.7904 134.55 29.9305 134.55 27.1128C134.55 23.2153 130.847 22.1501 129.712 21.9138C129.348 21.8434 128.969 21.7727 128.581 21.696C127.664 21.5207 126.712 21.3397 125.846 21.1023C125.24 20.9367 123.262 20.2828 123.262 18.8145C123.262 17.1983 125.068 16.3269 126.765 16.3269C128.191 16.3269 129.38 16.5652 130.901 17.7444C131.02 17.8373 131.187 17.9437 131.39 17.9437C131.541 17.9437 131.685 17.8921 131.84 17.782C132.261 17.4739 133.032 16.8286 133.541 16.3232C133.661 16.2026 133.717 16.0706 133.71 15.9326C133.698 15.7183 133.538 15.543 133.455 15.4754C131.421 13.8735 129.463 13.2178 126.703 13.2107H126.683C122.735 13.2107 119.754 15.7305 119.754 19.0713C119.754 21.7186 121.946 23.5987 125.919 24.3735L128.407 24.847C130.043 25.1451 130.962 26.0074 130.93 27.2146C130.901 28.3913 129.447 29.6098 127.059 29.6098C125.11 29.6098 123.393 28.8542 121.954 27.5578L121.933 27.5373C121.831 27.4458 121.71 27.3343 121.546 27.3343C121.432 27.3343 121.311 27.387 121.18 27.4882C121.03 27.6091 119.369 28.9135 119.192 29.0979C119.11 29.1846 119.072 29.2761 119.074 29.3721C119.078 29.5246 119.179 29.6671 119.271 29.7509ZM145.369 30.16C145.541 30.16 145.638 30.2931 145.638 30.4388C145.638 30.577 145.541 30.7093 145.358 30.7093H144.974V30.16H145.369ZM145.585 31.0739C145.9 30.9952 146.035 30.7158 146.035 30.4388C146.035 30.1013 145.821 29.7663 145.369 29.7663H144.569V31.8104H144.974V31.1041H145.108L145.619 31.8104H146.112L145.585 31.0739ZM145.271 32.4657C146.211 32.4657 146.951 31.7141 146.951 30.7794C146.951 29.8467 146.211 29.0879 145.271 29.0879C144.331 29.0879 143.589 29.8467 143.589 30.7794C143.589 31.7141 144.331 32.4657 145.271 32.4657ZM145.271 28.7273C146.409 28.7273 147.314 29.6483 147.314 30.7794C147.314 31.9105 146.409 32.8243 145.271 32.8243C144.134 32.8243 143.234 31.9105 143.234 30.7794C143.234 29.6483 144.134 28.7273 145.271 28.7273Z" fill="black"/>
<path id="Vector_2" fill-rule="evenodd" clip-rule="evenodd" d="M39.0016 38.9102C30.1531 47.6971 15.8014 47.696 6.95355 38.9102C-1.8989 30.1222 -1.8989 15.8746 6.95355 7.08943C15.8034 -1.69662 30.1531 -1.69662 38.9999 7.09029C47.8523 15.8743 47.8523 30.1219 39.0016 38.91" fill="white"/>
<path id="Vector_3" fill-rule="evenodd" clip-rule="evenodd" d="M40.6192 11.6455C41.0438 13.0109 41.2764 14.4601 41.2764 15.9626C41.2764 20.8101 38.8759 25.0727 35.2247 27.7436C28.8755 32.3862 19.6217 32.3925 6.84448 36.3897C10.7009 40.9659 16.496 43.8785 22.9766 43.8785C34.5916 43.8785 44.0068 34.5309 44.0068 22.9998C44.0068 18.8139 42.7587 14.9167 40.6192 11.6455Z" fill="black"/>
<path id="Vector_4" fill-rule="evenodd" clip-rule="evenodd" d="M35.5887 6.29428C32.0744 3.67184 27.7087 2.12061 22.9771 2.12061C11.3626 2.12061 1.94775 11.4702 1.94775 22.9998C1.94775 27.641 3.47288 31.9276 6.05227 35.3935C20.1961 31.3047 31.3641 20.2896 35.5887 6.29428Z" fill="black"/>
</g>
</svg>
