<svg width="179" height="20" viewBox="0 0 179 20" fill="none" xmlns="http://www.w3.org/2000/svg">
<g id="Starbucks" opacity="0.4">
<path id="Vector" d="M119.086 10.9444C119.086 16.4272 116.002 19.1686 110.348 19.1686C104.694 19.1686 101.781 16.2558 101.781 10.9444V1.34947H107.949V10.6017C107.949 13.1718 108.635 14.3711 110.348 14.3711C112.062 14.3711 112.747 13.3431 112.747 10.4304V1.34947H118.915L119.086 10.9444ZM34.9563 1.34947V5.80424H29.8162V18.8259H23.4767V5.80424H18.1652V1.34947H34.9563ZM45.5792 5.29023L44.0372 11.287H47.1212L45.5792 5.29023ZM49.6913 18.8259L48.6633 15.5705H42.6665L41.4671 18.8259H35.1276L41.4671 1.34947H49.52L55.8595 18.8259H49.6913ZM139.308 17.4552L137.423 12.8291C136.224 13.8571 134.853 14.3711 133.311 14.3711C130.912 14.3711 129.199 12.3151 129.199 10.0877V9.91635C129.027 7.68896 130.569 5.63291 132.968 5.29023H133.311C134.853 5.29023 136.395 5.97558 137.423 7.00361L139.308 2.54884C137.08 1.34947 134.682 0.835461 132.283 0.835461C127.314 0.664123 123.031 4.60488 122.859 9.57367C122.688 14.5425 126.629 18.8259 131.597 18.9972H132.454C134.853 19.3399 137.252 18.6546 139.308 17.4552ZM160.04 1.34947L154.385 9.91635L160.725 18.8259H153.529L149.588 12.4864V18.8259H143.42V1.34947H149.588V7.68896L153.186 1.34947H160.04ZM7.53885 19.1686C11.4796 19.1686 15.5917 17.7979 15.5917 13.3431C15.5917 9.40234 12.165 8.20297 9.42356 7.68896C7.36751 7.34629 6.51082 7.00361 6.51082 6.31826C6.51082 5.29024 7.88153 5.1189 8.56688 5.1189C10.2803 5.1189 11.9936 5.80424 13.5357 6.66093L15.249 2.72017C13.0217 1.69215 10.6229 1.17813 8.05286 1.0068C3.94076 1.0068 0.68535 3.06285 0.68535 7.00361C0.68535 10.259 3.25541 11.6297 5.82548 12.1437C7.71019 12.6577 8.90955 12.8291 8.90955 13.6858C8.90955 14.5425 8.05286 14.8851 7.02484 14.8851C5.14013 14.8851 3.25541 14.1998 1.88471 13.0004L0 16.7698C2.57006 18.3119 4.96879 18.9972 7.53885 19.1686ZM170.148 19.1703C174.089 19.1703 178.201 17.7996 178.201 13.3448C178.201 9.40405 174.775 8.20469 172.033 7.69067C169.977 7.348 169.12 7.00532 169.12 6.31997C169.12 5.29195 170.491 5.12061 171.176 5.12061C172.89 5.12061 174.603 5.80596 176.145 6.66265L177.859 2.72188C175.631 1.69386 173.232 1.17985 170.662 1.00851C166.55 1.00851 163.295 3.06456 163.295 7.00532C163.295 10.2607 165.694 11.6314 168.606 12.1454C170.491 12.6595 171.69 12.8308 171.69 13.6875C171.69 14.5442 170.662 14.8869 169.806 14.8869C167.921 14.8869 166.036 14.2015 164.666 13.0021L162.61 16.7716C165.008 18.3136 167.578 18.999 170.148 19.1703ZM72.4809 12.3168C74.537 11.4601 75.7363 9.57538 75.7363 7.348C75.7363 3.2359 72.8236 1.35118 68.8828 1.35118H59.4593V18.8276H65.6274V13.6875H67.1694L70.2535 18.8276H76.7643L72.4809 12.3168ZM69.7395 7.348C69.7395 8.37602 69.0542 9.06138 68.1975 9.23271H65.7987V5.46329H68.0261C68.8828 5.29195 69.7395 5.9773 69.9108 7.00532C69.7395 7.17666 69.7395 7.17666 69.7395 7.348ZM93.7268 9.91806C95.7828 9.74672 97.3248 8.03335 97.1535 5.9773C97.1535 3.06456 94.9261 1.35118 90.9854 1.35118H81.0478V18.8276H90.6427C95.2688 18.8276 97.4962 17.1142 97.4962 13.8588C97.6675 11.8028 95.9541 10.0894 93.7268 9.91806ZM87.0446 5.12061H89.272C90.4713 5.12061 91.1567 5.63463 91.1567 6.66265C91.1567 7.69068 90.4713 8.20468 89.272 8.20468H87.0446V5.12061ZM91.1567 13.3448C91.1567 14.3728 90.4714 14.8869 89.1006 14.8869H86.8733V11.6314H89.1024C90.4731 11.8028 91.1584 12.3168 91.1584 13.3448H91.1567Z" fill="black"/>
</g>
</svg>
