<svg width="155" height="38" viewBox="0 0 155 38" fill="none" xmlns="http://www.w3.org/2000/svg">
<g id="Walmart" opacity="0.4" clip-path="url(#clip0_10_1622)">
<path id="Vector" d="M135.786 13.0078C136.645 13.0078 137.353 12.5609 137.448 11.9836L138.297 2.3869C138.297 1.43836 137.186 0.659668 135.789 0.659668C134.393 0.659668 133.283 1.43836 133.283 2.38707L134.131 11.9836C134.224 12.5608 134.932 13.0078 135.789 13.0078H135.786ZM130.599 16.0053C131.03 15.2619 130.998 14.4263 130.543 14.0551L122.656 8.52194C121.835 8.04698 120.606 8.61867 119.908 9.829C119.208 11.0378 119.332 12.3878 120.15 12.863L128.884 16.9297C129.43 17.1321 130.174 16.7426 130.602 15.9996L130.599 16.0053ZM140.977 16.0002C141.408 16.7431 142.148 17.1328 142.695 16.9302L151.429 12.8635C152.252 12.3885 152.369 11.0383 151.675 9.82952C150.974 8.62039 149.742 8.04749 148.924 8.52245L141.036 14.0557C140.585 14.4263 140.551 15.2626 140.98 16.0058L140.977 16.0002ZM135.786 24.9955C136.645 24.9955 137.353 25.4387 137.448 26.0165L138.297 35.6118C138.297 36.5633 137.186 37.3403 135.789 37.3403C134.393 37.3403 133.283 36.5633 133.283 35.6118L134.131 26.0165C134.224 25.4387 134.932 24.9955 135.789 24.9955H135.786ZM140.977 21.9974C141.408 21.2524 142.148 20.8661 142.695 21.0709L151.429 25.1349C152.252 25.6104 152.369 26.9618 151.675 28.1716C150.974 29.3768 149.742 29.9512 148.924 29.477L141.036 23.9489C140.585 23.5753 140.551 22.7386 140.98 21.9958H140.977M130.599 21.9963C131.03 22.7386 130.998 23.5753 130.543 23.9496L122.656 29.4775C121.835 29.9518 120.606 29.3773 119.908 28.1721C119.208 26.9623 119.332 25.6109 120.15 25.1354L128.884 21.0714C129.43 20.8667 130.174 21.2529 130.602 21.9981H130.599" fill="black"/>
<path id="Vector_2" d="M86.0309 23.9315C86.0309 24.226 86.0047 24.5297 85.924 24.7965C85.5895 25.9044 84.4423 26.8413 83.0072 26.8413C81.8106 26.8413 80.8601 26.1616 80.8601 24.726C80.8601 22.5287 83.2786 21.9219 86.0316 21.9372L86.0309 23.9313V23.9315ZM90.349 20.1024C90.349 16.4793 88.8008 13.2912 83.5698 13.2912C80.8846 13.2912 78.7535 14.0455 77.5902 14.7177L78.4422 17.6304C79.5053 16.9592 81.1997 16.4036 82.8031 16.4036C85.4564 16.3963 85.891 17.9062 85.891 18.8726V19.1013C80.1071 19.0928 76.451 21.0955 76.451 25.1752C76.451 27.6681 78.3131 30.003 81.5501 30.003C83.5392 30.003 85.2051 29.2091 86.2021 27.9361H86.3005C86.3005 27.9361 86.9602 30.6999 90.6022 29.6424C90.4121 28.4931 90.3496 27.2661 90.3496 25.7907L90.3491 20.1024M0.230469 8.35713C0.230469 8.35713 4.01008 23.8444 4.61362 26.3578C5.31766 29.2916 6.58654 30.3716 10.2432 29.6424L12.6031 20.041C13.2015 17.6549 13.602 15.9537 13.9876 13.5289H14.0547C14.3254 15.9794 14.7094 17.6622 15.2018 20.0488C15.2018 20.0488 16.162 24.408 16.6546 26.6968C17.1477 28.985 18.5202 30.428 22.1024 29.6424L27.7258 8.35645H23.1868L21.2661 17.5599C20.7498 20.2377 20.2816 22.3325 19.9204 24.7818H19.8562C19.528 22.3541 19.11 20.3447 18.5856 17.735L16.5875 8.35645H11.8574L9.71895 17.4986C9.1137 20.2774 8.54611 22.5203 8.18656 24.8881H8.12116C7.75201 22.6585 7.26062 19.8384 6.72883 17.1498C6.72883 17.1498 5.45925 10.6105 5.01272 8.35645L0.230469 8.35713ZM36.3116 23.9315C36.3116 24.226 36.2854 24.5297 36.2036 24.7965C35.8697 25.9044 34.7219 26.8413 33.2867 26.8413C32.0899 26.8413 31.1409 26.1616 31.1409 24.726C31.1409 22.5287 33.5586 21.9219 36.3121 21.9372L36.3116 23.9313V23.9315ZM40.6292 20.1024C40.6292 16.4793 39.0811 13.2912 33.8511 13.2912C31.1652 13.2912 29.0324 14.0455 27.8698 14.7177L28.7207 17.6304C29.7837 16.9592 31.478 16.4036 33.082 16.4036C35.7372 16.3963 36.1717 17.9062 36.1717 18.8726V19.1013C30.3855 19.0928 26.731 21.0955 26.731 25.1752C26.731 27.6681 28.5922 30.003 31.8268 30.003C33.8185 30.003 35.4835 29.2091 36.4816 27.9361H36.5789C36.5789 27.9361 37.2405 30.6999 40.8816 29.6424C40.6912 28.4931 40.6292 27.2661 40.6292 25.7907V20.1024ZM47.835 25.124V8.35713H43.5118V29.6431H47.835V25.124ZM104.391 8.35713V24.0594C104.391 26.2253 104.799 27.7411 105.67 28.6687C106.433 29.4798 107.686 30.0047 109.189 30.0047C110.468 30.0047 111.725 29.7607 112.318 29.5407L112.262 26.1633C111.821 26.2712 111.314 26.3585 110.62 26.3585C109.147 26.3585 108.655 25.4148 108.655 23.4713V17.4633H112.419V13.39H108.655V8.35713H104.391ZM93.2317 13.6523V29.6431H97.6914V21.4555C97.6914 21.013 97.7181 20.6274 97.7882 20.2747C98.1181 18.5587 99.4296 17.4633 101.313 17.4633C101.83 17.4633 102.2 17.5194 102.6 17.5763V13.39C102.264 13.3231 102.036 13.2918 101.618 13.2918C99.9535 13.2918 98.0601 14.3656 97.2654 16.6692H97.1449V13.6523H93.2317ZM50.8621 13.6523V29.6431H55.2071V20.2661C55.2071 19.8261 55.2588 19.3607 55.4112 18.9573C55.7713 18.0132 56.6499 16.9075 58.052 16.9075C59.8061 16.9075 60.6252 18.3897 60.6252 20.5289V29.6419H64.9668V20.1507C64.9668 19.7309 65.0241 19.2248 65.1483 18.8546C65.5047 17.78 66.4512 16.9063 67.7549 16.9063C69.5323 16.9063 70.3854 18.3625 70.3854 20.8804V29.6414H74.7299V20.2228C74.7299 15.2563 72.2079 13.2902 69.3605 13.2902C68.1007 13.2902 67.1053 13.6058 66.205 14.1574C65.4491 14.6231 64.7711 15.283 64.1795 16.1504H64.1153C63.4287 14.4271 61.8133 13.2911 59.7082 13.2911C57.0038 13.2911 55.7884 14.662 55.0511 15.8246H54.9864V13.6518H50.8621" fill="black"/>
<path id="Vector_3" d="M153.62 28.8655H153.686C153.772 28.8655 153.828 28.8296 153.828 28.7762C153.828 28.7154 153.776 28.6823 153.695 28.6823C153.667 28.6823 153.639 28.688 153.62 28.688V28.8671V28.8654L153.62 28.8655ZM153.61 29.2967H153.379V28.5442C153.431 28.5339 153.554 28.5156 153.71 28.5156C153.88 28.5156 153.956 28.5395 154.012 28.5772C154.059 28.6101 154.093 28.6662 154.093 28.7421C154.093 28.8193 154.022 28.8847 153.918 28.9133V28.9229C154.003 28.9457 154.05 29.0077 154.074 29.1164C154.097 29.2249 154.112 29.2693 154.126 29.2972H153.865C153.842 29.2693 153.828 29.2027 153.813 29.1362C153.798 29.06 153.762 29.0219 153.685 29.0219H153.609L153.61 29.2967ZM153.705 28.299C153.374 28.299 153.124 28.5692 153.124 28.9137C153.124 29.2492 153.374 29.523 153.714 29.523C154.056 29.5287 154.307 29.2494 154.307 28.9082C154.307 28.5685 154.056 28.299 153.711 28.299H153.705ZM153.72 28.0947C154.183 28.0947 154.551 28.4587 154.551 28.908C154.551 29.3626 154.183 29.7271 153.714 29.7271C153.245 29.7271 152.872 29.3621 152.872 28.9082C152.872 28.4587 153.246 28.0949 153.714 28.0949H153.719" fill="black"/>
</g>
<defs>
<clipPath id="clip0_10_1622">
<rect width="154.791" height="36.6806" fill="white" transform="translate(0.201172 0.659668)"/>
</clipPath>
</defs>
</svg>
